<?xml version="1.0" encoding="UTF-8" standalone="no"?>
<svg
   xmlns:dc="http://purl.org/dc/elements/1.1/"
   xmlns:cc="http://creativecommons.org/ns#"
   xmlns:rdf="http://www.w3.org/1999/02/22-rdf-syntax-ns#"
   xmlns:svg="http://www.w3.org/2000/svg"
   xmlns="http://www.w3.org/2000/svg"
   xmlns:xlink="http://www.w3.org/1999/xlink"
   version="1.1"
   id="svg2"
   viewBox="0 0 94.000006 110"
   height="110"
   width="94">
  <defs
     id="defs4">
    <linearGradient
       id="linearGradient2888">
      <stop
         id="stop2890"
         offset="0"
         style="stop-color:#c7a94c;stop-opacity:1;" />
      <stop
         id="stop2892"
         offset="1"
         style="stop-color:#e2ca80;stop-opacity:1;" />
    </linearGradient>
    <linearGradient
       xlink:href="#linearGradient2888"
       id="linearGradient2429"
       x1="20.458055"
       y1="73.395927"
       x2="36.144512"
       y2="107.03917"
       gradientUnits="userSpaceOnUse"
       gradientTransform="translate(8,0)" />
    <linearGradient
       id="linearGradient2338">
      <stop
         id="stop2340"
         offset="0"
         style="stop-color:#b1b1b1;stop-opacity:1;" />
      <stop
         id="stop2342"
         offset="1"
         style="stop-color:#e4e4e4;stop-opacity:1;" />
    </linearGradient>
    <linearGradient
       xlink:href="#linearGradient2888"
       id="linearGradient3460"
       gradientUnits="userSpaceOnUse"
       x1="70.659462"
       y1="48"
       x2="73.081078"
       y2="45.535133"
       gradientTransform="translate(8,0)" />
    <linearGradient
       xlink:href="#linearGradient2888"
       id="linearGradient3462"
       gradientUnits="userSpaceOnUse"
       x1="73.124329"
       y1="43.913513"
       x2="69.405403"
       y2="50.702702"
       gradientTransform="translate(8,0)" />
    <linearGradient
       xlink:href="#linearGradient2888"
       id="linearGradient3464"
       gradientUnits="userSpaceOnUse"
       x1="48.12973"
       y1="84.864868"
       x2="44.281082"
       y2="87.978378"
       gradientTransform="translate(8,0)" />
    <linearGradient
       xlink:href="#linearGradient2888"
       id="linearGradient3466"
       gradientUnits="userSpaceOnUse"
       x1="49.945946"
       y1="74.162163"
       x2="43.675674"
       y2="78.789192"
       gradientTransform="translate(8,0)" />
    <linearGradient
       xlink:href="#linearGradient2888"
       id="linearGradient3468"
       gradientUnits="userSpaceOnUse"
       x1="50.854053"
       y1="93.967567"
       x2="43.545944"
       y2="98.724327"
       gradientTransform="translate(8,0)" />
    <linearGradient
       xlink:href="#linearGradient2888"
       id="linearGradient3470"
       gradientUnits="userSpaceOnUse"
       x1="52.843246"
       y1="83.178383"
       x2="34.983784"
       y2="99.308105"
       gradientTransform="translate(8,0)" />
    <linearGradient
       xlink:href="#linearGradient2888"
       id="linearGradient3472"
       gradientUnits="userSpaceOnUse"
       x1="104.82162"
       y1="64.194595"
       x2="100.02161"
       y2="68.821625"
       gradientTransform="translate(8,0)" />
    <linearGradient
       xlink:href="#linearGradient2888"
       id="linearGradient3474"
       gradientUnits="userSpaceOnUse"
       x1="105.47027"
       y1="55.135132"
       x2="99.416214"
       y2="58.162163"
       gradientTransform="translate(8,0)" />
    <linearGradient
       xlink:href="#linearGradient2888"
       id="linearGradient3476"
       gradientUnits="userSpaceOnUse"
       x1="103.83077"
       y1="74.897301"
       x2="99.982124"
       y2="77.49189"
       gradientTransform="translate(8,0)" />
    <linearGradient
       xlink:href="#linearGradient2888"
       id="linearGradient3478"
       gradientUnits="userSpaceOnUse"
       x1="97.340538"
       y1="66.24865"
       x2="108.23784"
       y2="60.627029"
       gradientTransform="translate(8,0)" />
    <linearGradient
       xlink:href="#linearGradient2338"
       id="linearGradient3480"
       gradientUnits="userSpaceOnUse"
       x1="95.308105"
       y1="95.286484"
       x2="107.8054"
       y2="86.508102"
       gradientTransform="translate(8,0)" />
    <linearGradient
       xlink:href="#linearGradient2338"
       id="linearGradient3482"
       gradientUnits="userSpaceOnUse"
       x1="80.216217"
       y1="84.929733"
       x2="92.670273"
       y2="95.178383"
       gradientTransform="translate(8,0)" />
    <linearGradient
       xlink:href="#linearGradient2888"
       id="linearGradient3484"
       gradientUnits="userSpaceOnUse"
       gradientTransform="translate(8,11.589189)"
       x1="87.654053"
       y1="66.616211"
       x2="86.76757"
       y2="67.827026" />
    <linearGradient
       xlink:href="#linearGradient2888"
       id="linearGradient3486"
       gradientUnits="userSpaceOnUse"
       x1="87.654053"
       y1="66.616211"
       x2="86.76757"
       y2="67.827026"
       gradientTransform="translate(8,0)" />
    <linearGradient
       xlink:href="#linearGradient2888"
       id="linearGradient3488"
       gradientUnits="userSpaceOnUse"
       gradientTransform="translate(8.0864865,11.589189)"
       x1="86.140541"
       y1="68.778374"
       x2="88.432426"
       y2="65.49189" />
    <linearGradient
       xlink:href="#linearGradient2888"
       id="linearGradient3490"
       gradientUnits="userSpaceOnUse"
       x1="86.140541"
       y1="68.778374"
       x2="88.432426"
       y2="65.49189"
       gradientTransform="translate(8,0)" />
    <linearGradient
       xlink:href="#linearGradient2888"
       id="linearGradient3492"
       gradientUnits="userSpaceOnUse"
       x1="80.875"
       y1="61.875"
       x2="92.125"
       y2="79.5"
       gradientTransform="translate(8,0)" />
    <linearGradient
       xlink:href="#linearGradient2888"
       id="linearGradient3494"
       gradientUnits="userSpaceOnUse"
       x1="39.625"
       y1="108.75"
       x2="101.625"
       y2="38.375"
       gradientTransform="translate(8,0)" />
    <linearGradient
       xlink:href="#linearGradient2338"
       id="linearGradient3496"
       gradientUnits="userSpaceOnUse"
       x1="39.774757"
       y1="62.946178"
       x2="105.71246"
       y2="29.623772"
       gradientTransform="translate(8,0)" />
    <linearGradient
       xlink:href="#linearGradient2888"
       id="linearGradient3498"
       gradientUnits="userSpaceOnUse"
       x1="38.802486"
       y1="56.847382"
       x2="105.4473"
       y2="23.348196"
       gradientTransform="translate(8,0)" />
    <linearGradient
       xlink:href="#linearGradient2888"
       id="linearGradient3500"
       gradientUnits="userSpaceOnUse"
       x1="38.006989"
       y1="50.129868"
       x2="84.49926"
       y2="15.65841"
       gradientTransform="translate(8,0)" />
    <linearGradient
       xlink:href="#linearGradient2888"
       id="linearGradient3502"
       gradientUnits="userSpaceOnUse"
       x1="20.3125"
       y1="43.40625"
       x2="35.0625"
       y2="54.46875"
       gradientTransform="translate(8,0)" />
    <linearGradient
       xlink:href="#linearGradient2338"
       id="linearGradient3504"
       gradientUnits="userSpaceOnUse"
       x1="20.875"
       y1="51.0625"
       x2="36.074951"
       y2="61.5"
       gradientTransform="translate(8,0)" />
    <linearGradient
       xlink:href="#linearGradient2888"
       id="linearGradient3506"
       gradientUnits="userSpaceOnUse"
       x1="29.1875"
       y1="82.53125"
       x2="27.5625"
       y2="83.65625"
       gradientTransform="translate(8,0)" />
    <linearGradient
       xlink:href="#linearGradient2888"
       id="linearGradient3508"
       gradientUnits="userSpaceOnUse"
       x1="27.875"
       y1="83.6875"
       x2="29.875"
       y2="82.1875"
       gradientTransform="translate(8,0)" />
    <linearGradient
       xlink:href="#linearGradient2888"
       id="linearGradient3510"
       gradientUnits="userSpaceOnUse"
       x1="32.5"
       y1="93.0625"
       x2="23.0625"
       y2="95.1875"
       gradientTransform="translate(8,0)" />
    <linearGradient
       xlink:href="#linearGradient2888"
       id="linearGradient3512"
       gradientUnits="userSpaceOnUse"
       x1="33.625"
       y1="70.03125"
       x2="23.1875"
       y2="72.34375"
       gradientTransform="translate(8,0)" />
    <linearGradient
       xlink:href="#linearGradient2888"
       id="linearGradient3514"
       gradientUnits="userSpaceOnUse"
       x1="25.897785"
       y1="75.232155"
       x2="35.88567"
       y2="71.343071"
       gradientTransform="translate(8,0)" />
    <linearGradient
       xlink:href="#linearGradient2888"
       id="linearGradient3516"
       gradientUnits="userSpaceOnUse"
       x1="25.455843"
       y1="95.428902"
       x2="32.70369"
       y2="91.09787"
       gradientTransform="translate(8,0)" />
    <linearGradient
       xlink:href="#linearGradient2338"
       id="linearGradient3518"
       gradientUnits="userSpaceOnUse"
       x1="37.418602"
       y1="120.57538"
       x2="55.565941"
       y2="106.52163"
       gradientTransform="translate(8,0)" />
    <linearGradient
       xlink:href="#linearGradient2338"
       id="linearGradient3520"
       gradientUnits="userSpaceOnUse"
       x1="19.180271"
       y1="104.26773"
       x2="34.471455"
       y2="119.55891"
       gradientTransform="translate(8,0)" />
  </defs>
  <metadata
     id="metadata7">
    <rdf:RDF>
      <cc:Work
         rdf:about="">
        <dc:format>image/svg+xml</dc:format>
        <dc:type
           rdf:resource="http://purl.org/dc/dcmitype/StillImage" />
        <dc:title></dc:title>
      </cc:Work>
    </rdf:RDF>
  </metadata>
  <g
     transform="translate(-269.65543,-371.7466)"
     id="layer1">
    <g
       transform="translate(244.99918,359.34035)"
       id="g3465">
      <g
         id="layer2" />
      <g
         transform="matrix(-1,0,0,1,142.25,0)"
         id="g3553">
        <path
           id="path2427"
           d="m 26.346554,55.225335 0,2.935448 1.712345,3.18007 -0.08649,34.145576 -1.503548,1.569049 -0.172973,2.186749 18.641837,12.735113 0.244621,-48.06797 -18.835796,-8.684035 z"
           style="fill:url(#linearGradient2429);fill-rule:evenodd;stroke:none;stroke-width:1px;stroke-linecap:butt;stroke-linejoin:miter;stroke-opacity:1" />
        <path
           id="path2489"
           d="m 26.296388,99.008622 18.649941,12.993088 -0.795495,10.25305 -19.26866,-15.64474 1.414214,-7.601398 z"
           style="fill:url(#linearGradient3520);fill-rule:evenodd;stroke:none;stroke-width:1px;stroke-linecap:butt;stroke-linejoin:miter;stroke-opacity:1" />
        <path
           id="path2493"
           d="m 44.769553,111.82493 -0.618719,10.25305 22.980971,-9.36916 -2.916816,-7.77818 -19.445436,6.89429 z"
           style="fill:url(#linearGradient3518);fill-rule:evenodd;stroke:none;stroke-width:1px;stroke-linecap:butt;stroke-linejoin:miter;stroke-opacity:1" />
        <path
           id="path2499"
           d="m 29.38998,85.573593 0,3.623922 -0.265165,3.270369 0.441942,1.59099 0.795495,1.502602 2.65165,3.005204 3.535534,2.20971 3.093593,1.67938 1.679378,0.61872 1.325825,-0.0884 0.441942,-8.220119 -1.149048,-2.298097 -3.093593,-3.358757 -3.977475,-2.474874 -3.535534,-1.502602 -1.502602,0.53033 -0.441942,-0.08839 z"
           style="fill:url(#linearGradient3516);fill-rule:evenodd;stroke:none;stroke-width:1px;stroke-linecap:butt;stroke-linejoin:miter;stroke-opacity:1" />
        <path
           id="path2503"
           d="m 29.831922,62.415846 -0.707107,2.209709 -0.265165,1.767767 0.08839,1.679378 0.265165,1.856155 0.707107,2.032932 2.563262,3.270369 2.474874,1.767767 3.889087,2.386486 3.712311,0.883883 0.618718,-0.176777 0.707107,-3.005203 -0.265165,-3.535534 -0.618718,-2.740039 -3.447146,-4.154252 -4.949747,-3.181981 -2.563262,-0.972272 -2.209709,-0.08839 z"
           style="fill:url(#linearGradient3514);fill-rule:evenodd;stroke:none;stroke-width:1px;stroke-linecap:butt;stroke-linejoin:miter;stroke-opacity:1" />
        <path
           id="path2509"
           d="m 29.3125,63.4375 4.375,7.125 -3.8125,0.75 0.375,1.1875 0.4375,0.8125 4.25,-0.8125 6.375,7.4375 1.625,0.1875 0.3125,-0.75 -6.125,-7.25 5.75,-1.0625 -0.8125,-1.375 -0.375,-0.625 -5.3125,1.1875 -5.9375,-7.9375 -0.6875,0 -0.4375,1.125 z"
           style="fill:url(#linearGradient3512);fill-rule:evenodd;stroke:none;stroke-width:1px;stroke-linecap:butt;stroke-linejoin:miter;stroke-opacity:1" />
        <path
           id="path2513"
           d="m 30.375,85.3125 4.0625,5.5 1.75,2.375 5.25,-1.1875 1.4375,2 -1.1875,0 -4.625,1.0625 2.9375,3.5625 2.625,3.1875 -0.0625,1.25 -1,0 L 38,99 34.75,95.1875 30.5625,96.0625 29.75,94.6875 29.5625,94.25 33.5,93.5 30.25,87.9375 29.3125,86.5625 29.5,85.875 30.375,85.3125 Z"
           style="fill:url(#linearGradient3510);fill-rule:evenodd;stroke:none;stroke-width:1px;stroke-linecap:butt;stroke-linejoin:miter;stroke-opacity:1" />
        <path
           id="path2517"
           d="m 34.4375,79.8125 -0.8125,0.625 -0.125,1.1875 0.375,1.625 2.0625,2.4375 1.75,0.25 L 38.75,85.875 39.1875,84.5 38.75,82.6875 38,81.4375 36.9375,80.625 35,79.6875 l -0.5625,0.125 z"
           style="fill:url(#linearGradient3508);fill-rule:evenodd;stroke:none;stroke-width:1px;stroke-linecap:butt;stroke-linejoin:miter;stroke-opacity:1" />
        <path
           id="path2521"
           d="m 35.3125,81.75 -0.1875,0.9375 0.1875,0.8125 0.25,0.625 1.125,0.5625 0.5625,-0.125 0.25,-0.9375 0.0625,-0.6875 -1.25,-1.0625 -1,-0.125 z"
           style="fill:url(#linearGradient3506);fill-rule:evenodd;stroke:none;stroke-width:1px;stroke-linecap:butt;stroke-linejoin:miter;stroke-opacity:1" />
        <path
           style="fill:#000000;fill-opacity:0.15686275;fill-rule:evenodd;stroke:none;stroke-width:1px;stroke-linecap:butt;stroke-linejoin:miter;stroke-opacity:1"
           d="m 26.346554,55.225335 0,2.935448 1.712345,3.18007 -0.08649,34.145576 -1.503548,1.569049 -0.172973,2.186749 18.641837,12.735113 0.244621,-48.06797 -18.835796,-8.684035 z"
           id="path2525" />
        <path
           style="fill:#000000;fill-opacity:0.15686275;fill-rule:evenodd;stroke:none;stroke-width:1px;stroke-linecap:butt;stroke-linejoin:miter;stroke-opacity:1"
           d="m 26.296388,99.008622 18.649941,12.993088 -0.795495,10.25305 -19.26866,-15.64474 1.414214,-7.601398 z"
           id="path3104" />
        <path
           id="path3108"
           d="m 27.25,49.6875 0.1875,5.625 17.875,8.875 C 45.3125,64.1875 46,58 45.375,57.75 44.75,57.5 27.4375,49.6875 27.25,49.6875 Z"
           style="fill:url(#linearGradient3504);fill-rule:evenodd;stroke:none;stroke-width:1px;stroke-linecap:butt;stroke-linejoin:miter;stroke-opacity:1" />
        <path
           id="path3112"
           d="m 26.875,42.1875 c 0,0.25 -0.375,7 -0.375,7 l 19,8.9375 0,-7.1875 -18.625,-8.75 z"
           style="fill:url(#linearGradient3502);fill-rule:evenodd;stroke:none;stroke-width:1px;stroke-linecap:butt;stroke-linejoin:miter;stroke-opacity:1" />
        <path
           style="fill:#000000;fill-opacity:0.15686275;fill-rule:evenodd;stroke:none;stroke-width:1px;stroke-linecap:butt;stroke-linejoin:miter;stroke-opacity:1"
           d="m 27.25,49.6875 0.1875,5.625 17.875,8.875 C 45.3125,64.1875 46,58 45.375,57.75 44.75,57.5 27.4375,49.6875 27.25,49.6875 Z"
           id="path3116" />
        <path
           style="fill:#000000;fill-opacity:0.15686275;fill-rule:evenodd;stroke:none;stroke-width:1px;stroke-linecap:butt;stroke-linejoin:miter;stroke-opacity:1"
           d="m 26.875,42.1875 c 0,0.25 -0.375,7 -0.375,7 l 19,8.9375 0,-7.1875 -18.625,-8.75 z"
           id="path3118" />
        <path
           id="path3120"
           d="m 26.561553,41.732973 65.672542,-27.84233 24.041635,6.540738 -4.50781,2.12132 -66.379649,28.637825 -18.826718,-9.457553 z"
           style="fill:url(#linearGradient3500);fill-rule:evenodd;stroke:none;stroke-width:1px;stroke-linecap:butt;stroke-linejoin:miter;stroke-opacity:1" />
        <path
           id="path3124"
           d="M 30.008699,42.174914 45.830213,49.069205 111.67953,21.050099 92.145707,15.746798 30.008699,42.174914 Z"
           style="fill:#ffffff;fill-opacity:0.15686275;fill-rule:evenodd;stroke:none;stroke-width:1px;stroke-linecap:butt;stroke-linejoin:miter;stroke-opacity:1" />
        <path
           id="path3128"
           d="m 45.476659,51.102137 70.445511,-30.228815 -0.26516,7.336233 -70.268739,30.140427 0.08839,-7.247845 z"
           style="fill:url(#linearGradient3498);fill-rule:evenodd;stroke:none;stroke-width:1px;stroke-linecap:butt;stroke-linejoin:miter;stroke-opacity:1" />
        <path
           id="path3132"
           d="m 45.388271,64.713943 c 0,-0.707107 -0.08839,-6.275573 -0.08839,-6.275573 l 69.561629,-29.96365 0.0884,5.833631 -69.561631,30.405592 z"
           style="fill:url(#linearGradient3496);fill-rule:evenodd;stroke:none;stroke-width:1px;stroke-linecap:butt;stroke-linejoin:miter;stroke-opacity:1" />
        <path
           id="path3140"
           d="m 44.875,112.125 0.25,-6.5 0.125,-35.75 0.125,-5.5 70.125,-30.25 0.625,3.5 -1.875,3.5 0.125,38.25 1.875,2.875 0,3.125 -14,5.875 -0.625,-31 -0.5,-1 -6.625,-4.125 -5.25,-0.5 c -3.339894,0.254431 -6.503885,0.948621 -9.625,1.75 L 75.25,59 l -5.875,4 -4.5,5.875 -1,4.125 0.125,32 -19.125,7.125 z"
           style="fill:url(#linearGradient3494);fill-rule:evenodd;stroke:none;stroke-width:1px;stroke-linecap:butt;stroke-linejoin:miter;stroke-opacity:1" />
        <path
           id="path3146"
           d="M 101.875,91.125 88.125,84.25 87.75,54.625 l 5.75,0.25 6.5,3.25 1.75,2.125 0.125,30.875 z"
           style="fill:url(#linearGradient3492);fill-rule:evenodd;stroke:none;stroke-width:1px;stroke-linecap:butt;stroke-linejoin:miter;stroke-opacity:1" />
        <path
           id="path3144"
           d="m 61.5,105.875 0.5,-31.75 0.5,-1.75 1.875,-5.625 3.25,-4.875 3.5,-3.25 5.75,-3.5 6,-1.75 3,-0.25 4.75,-0.25 4.125,0.25 2.875,1.125 3,1.75 2.75,3 0.5,31.375 -1.75,0.375 -2,-0.5 L 99.875,58.125 93,54.75 87.620777,54.83277 C 84.799201,54.713131 81.746161,56.067979 79.125,56.75 l -5.25,2.75 -5.75,5 -3.375,5.5 -0.75,2.875 0.125,32 -2.625,1 z"
           style="fill:#ffffff;fill-opacity:0.15686275;fill-rule:evenodd;stroke:none;stroke-width:1px;stroke-linecap:butt;stroke-linejoin:miter;stroke-opacity:1" />
        <path
           id="path3150"
           d="M 88,84.125 87.875,54.75 89.668074,54.458615 90.125,85.125 88,84.125 Z"
           style="fill:#ffffff;fill-opacity:0.15686275;fill-rule:evenodd;stroke:none;stroke-width:1px;stroke-linecap:butt;stroke-linejoin:miter;stroke-opacity:1" />
        <path
           id="path3154"
           d="m 93.275676,64.648649 -0.778379,0.994594 -0.216216,0.605406 0,0.908108 0.475676,1.254054 1.254054,1.210811 1.383784,0.475675 1.081081,-0.302702 0.648648,-0.951352 0.25946,-1.210811 -0.04324,-1.124324 -0.778379,-1.383784 -0.691892,-0.432432 -1.037837,-0.25946 -1.556757,0.216217 z"
           style="fill:url(#linearGradient3490);fill-rule:evenodd;stroke:none;stroke-width:1px;stroke-linecap:butt;stroke-linejoin:miter;stroke-opacity:1" />
        <path
           style="fill:url(#linearGradient3488);fill-rule:evenodd;stroke:none;stroke-width:1px;stroke-linecap:butt;stroke-linejoin:miter;stroke-opacity:1"
           d="m 93.362162,76.237838 -0.778379,0.994594 -0.216216,0.605406 0,0.908108 L 92.843243,80 l 1.254054,1.210811 1.383784,0.475675 1.081081,-0.302702 0.648648,-0.951352 0.25946,-1.210811 -0.04324,-1.124324 -0.778379,-1.383784 -0.691892,-0.432432 -1.037837,-0.25946 -1.556757,0.216217 z"
           id="path3158" />
        <path
           id="path3162"
           d="m 93.794595,66.032432 -0.302703,0.908108 0.216216,0.735136 0.518919,0.821621 1.427027,0.25946 0.389189,-0.605406 -0.129729,-0.778378 -0.475676,-0.908108 -0.735135,-0.345946 -0.908108,-0.08649 z"
           style="fill:url(#linearGradient3486);fill-rule:evenodd;stroke:none;stroke-width:1px;stroke-linecap:butt;stroke-linejoin:miter;stroke-opacity:1" />
        <path
           style="fill:url(#linearGradient3484);fill-rule:evenodd;stroke:none;stroke-width:1px;stroke-linecap:butt;stroke-linejoin:miter;stroke-opacity:1"
           d="m 93.794595,77.621621 -0.302703,0.908108 0.216216,0.735136 0.518919,0.821621 1.427027,0.25946 0.389189,-0.605406 -0.129729,-0.778378 -0.475676,-0.908108 -0.735135,-0.345946 -0.908108,-0.08649 z"
           id="path3166" />
        <path
           style="fill:#000000;fill-opacity:0.15686275;fill-rule:evenodd;stroke:none;stroke-width:1px;stroke-linecap:butt;stroke-linejoin:miter;stroke-opacity:1"
           d="M 101.875,91.125 88.125,84.25 87.75,54.625 l 5.75,0.25 6.5,3.25 1.75,2.125 0.125,30.875 z"
           id="path3170" />
        <path
           id="path3172"
           d="m 88.25946,84.281081 -1.037838,4.324324 14.832428,8.38919 -0.0432,-5.751352 -13.75135,-6.962162 z"
           style="fill:url(#linearGradient3482);fill-rule:evenodd;stroke:none;stroke-width:1px;stroke-linecap:butt;stroke-linejoin:miter;stroke-opacity:1" />
        <path
           style="fill:#000000;fill-opacity:0.15686275;fill-rule:evenodd;stroke:none;stroke-width:1px;stroke-linecap:butt;stroke-linejoin:miter;stroke-opacity:1"
           d="m 88.25946,84.281081 -1.037838,4.324324 14.832428,8.38919 -0.0432,-5.751352 -13.75135,-6.962162 z"
           id="path3176" />
        <path
           id="path3178"
           d="m 102.27027,97.124324 0,-5.837838 13.79459,-5.967567 1.25406,5.664865 -15.04865,6.14054 z"
           style="fill:url(#linearGradient3480);fill-rule:evenodd;stroke:none;stroke-width:1px;stroke-linecap:butt;stroke-linejoin:miter;stroke-opacity:1" />
        <path
           id="path3182"
           d="m 105.38378,54.486486 -0.0432,2.248649 0.17297,12.410811 0.0865,9.945946 0.95135,2.594594 1.03784,0.735136 0.99459,0.302702 0.56217,-0.08649 1.21081,-0.345946 1.12432,-0.908108 1.38378,-1.945946 0.60541,-2.594595 -0.21622,-17.989189 -0.0432,-5.708108 -0.82162,-2.248649 -2.37838,-1.124324 -1.21081,0.172973 -1.64324,1.297297 -1.77298,3.243243 z"
           style="fill:url(#linearGradient3478);fill-rule:evenodd;stroke:none;stroke-width:1px;stroke-linecap:butt;stroke-linejoin:miter;stroke-opacity:1" />
        <path
           id="path3186"
           d="m 106.8973,77.059459 0.38919,1.254054 0.69189,0.432433 1.68648,-0.08649 1.16757,-0.735135 0.69189,-1.297297 c 0,0 0.34595,-1.6 0.30271,-1.772973 -0.0433,-0.172973 -0.25946,-1.383784 -0.25946,-1.383784 l -1.6,-0.345946 -0.95135,0.08649 -1.12433,0.778378 -0.77838,1.772973 -0.21621,1.297297 z"
           style="fill:url(#linearGradient3476);fill-rule:evenodd;stroke:none;stroke-width:1px;stroke-linecap:butt;stroke-linejoin:miter;stroke-opacity:1" />
        <path
           id="path3190"
           d="m 107.80541,54.875676 -0.60541,1.6 -0.0432,1.686486 0.34594,1.124324 0.30271,0.12973 0.43243,0.345946 1.16757,-0.12973 1.21081,-0.475675 0.64864,-0.951352 0.38919,-0.735135 0.34595,-1.167567 0,-1.210811 -0.90811,-1.297297 -1.34054,-0.172973 -0.69189,0.129729 -0.64865,0.475676 -0.6054,0.648649 z"
           style="fill:url(#linearGradient3474);fill-rule:evenodd;stroke:none;stroke-width:1px;stroke-linecap:butt;stroke-linejoin:miter;stroke-opacity:1" />
        <path
           id="path3194"
           d="m 108.28108,63.87027 0.12973,6.313514 0.3027,0.605405 0.25946,0.172973 0.51892,0.12973 0.77838,-0.302703 0.56216,-0.691892 0.0433,-3.243243 0.0865,-3.502703 -0.12973,-0.735135 -0.38919,-0.345946 -0.47567,-0.04324 -0.86487,0.216216 -0.38919,0.25946 -0.34594,0.432432 -0.0865,0.735135 z"
           style="fill:url(#linearGradient3472);fill-rule:evenodd;stroke:none;stroke-width:1px;stroke-linecap:butt;stroke-linejoin:miter;stroke-opacity:1" />
        <path
           id="path3198"
           d="m 48.389189,76.886486 -0.302702,23.091892 0.691891,1.643242 1.686487,0.90811 2.335135,-0.0432 2.810811,-1.34054 2.637838,-3.502707 0.432432,-1.989189 0.25946,-10.810811 0.216216,-11.502703 -0.216216,-2.291891 -2.983784,-1.85946 -3.416216,1.081081 -2.032433,1.902703 -1.47027,1.989189 -0.518919,1.513514 -0.12973,1.21081 z"
           style="fill:url(#linearGradient3470);fill-rule:evenodd;stroke:none;stroke-width:1px;stroke-linecap:butt;stroke-linejoin:miter;stroke-opacity:1" />
        <path
           id="path3202"
           d="m 50.854054,97.686486 0.475676,0.951352 0.562162,0.562162 0.389189,0.172973 0.605406,0.216216 0.735135,-0.216216 1.383783,-0.691892 1.037838,-1.167568 0.648649,-1.254054 0.259459,-0.994594 0,-1.254054 -0.864864,-1.47027 -1.297298,-0.475676 -0.691892,0.12973 -1.124324,0.735135 -1.513513,1.729729 -0.518919,1.513514 -0.08649,1.513513 z"
           style="fill:url(#linearGradient3468);fill-rule:evenodd;stroke:none;stroke-width:1px;stroke-linecap:butt;stroke-linejoin:miter;stroke-opacity:1" />
        <path
           id="path3206"
           d="m 50.897297,78.572973 0.778379,1.254054 0.951351,0.432432 1.124324,-0.04324 1.816217,-1.210811 0.908108,-1.34054 0.605405,-2.162162 -0.562162,-1.98919 -1.859459,-0.605405 -1.72973,0.908108 -0.994595,0.994595 -0.691892,1.427027 -0.302702,0.821621 -0.04324,1.513514 z"
           style="fill:url(#linearGradient3466);fill-rule:evenodd;stroke:none;stroke-width:1px;stroke-linecap:butt;stroke-linejoin:miter;stroke-opacity:1" />
        <path
           id="path3210"
           d="m 52.281081,83.718919 0.04324,6.27027 0.216217,0.605406 0.562162,0.389189 0.518919,0.302702 0.345946,0.08649 0.691892,-0.216216 0.778378,-0.562162 0.605405,-0.908109 0.08649,-0.475675 0,-6.227027 -0.08649,-0.518919 -0.518919,-0.778379 -1.167567,-0.302702 -0.821622,0.259459 -0.691892,0.562162 -0.389189,0.735135 -0.172973,0.778379 z"
           style="fill:url(#linearGradient3464);fill-rule:evenodd;stroke:none;stroke-width:1px;stroke-linecap:butt;stroke-linejoin:miter;stroke-opacity:1" />
        <path
           id="path3214"
           d="m 77.794595,42.032432 -1.643244,1.98919 -0.648648,2.032432 -0.216216,2.378378 L 76.713514,51.2 78.4,52.497297 l 1.556757,-0.08649 1.6,-0.778379 1.427027,-1.729729 1.210811,-2.594595 L 84.367568,44.8 83.762162,42.508108 81.85946,40.691892 l -1.945946,0.12973 -2.118919,1.21081 z"
           style="fill:url(#linearGradient3462);fill-rule:evenodd;stroke:none;stroke-width:1px;stroke-linecap:butt;stroke-linejoin:miter;stroke-opacity:1" />
        <path
           id="path3218"
           d="m 78.356757,48 -0.216216,-1.47027 0.475675,-1.643244 1.210811,-0.735135 1.081081,0.345946 0.648649,1.124325 -0.389189,1.772973 -0.864865,1.513513 -0.951352,0.259459 L 78.356757,48 Z"
           style="fill:url(#linearGradient3460);fill-rule:evenodd;stroke:none;stroke-width:1px;stroke-linecap:butt;stroke-linejoin:miter;stroke-opacity:1" />
        <g
           id="layer1-2">
          <path
             id="path2308"
             d="m 92,13.65625 -65.65625,27.875 -0.03125,7.65625 0.875,0.96875 -0.03125,4.40625 -0.875,0.46875 0,3.78125 1.625,2.5 -0.09375,34.25 -1.34375,1.40625 -1.8125,9.90625 19.375,15.53125 23.15625,-9.53125 -2.75,-8.34375 -0.34375,-31 c 1.440747,-8.92221 8.368523,-12.902062 15.3125,-16.65625 2.689956,-1.036465 5.460848,-1.744283 8.1875,-1.9375 l 0.34375,29 -0.90625,4.8125 15.1272,8.523986 15.4353,-6.180236 -1.40625,-9.125 -1.6875,-2.5 0.125,-38.34375 1.5625,-3.1875 -0.34375,-3.9375 -0.6875,-0.09375 -0.0937,-4.75 0.84375,-1 L 116.21875,20.25 92,13.65625 Z M 91.84375,14.25 115.75,20.65625 45.59375,50.8125 26.875,41.875 91.84375,14.25 Z m 0.375,1.34375 L 29.5,42.125 45.78125,49.3125 112.03125,21 92.21875,15.59375 Z m -0.125,0.28125 18.75,5.21875 -64.96875,27.625 -15.5,-6.5 L 92.09375,15.875 Z m 23.375,5.25 -0.0937,6.90625 -31.9375,13.6875 C 82.763169,40.863843 81.807264,40.374999 80.7188,40.375 c -2.172183,10e-7 -4.300604,2.018615 -5.1875,4.78125 L 45.8125,57.75 45.71875,51.40625 115.46875,21.125 Z m -0.90625,7.75 0.0937,5.3125 -30.3437,13.1875 c 0.05886,-0.252878 0.119143,-0.488554 0.15625,-0.75 0.238164,-1.678035 -0.02501,-3.195664 -0.65625,-4.3125 l 30.75,-13.4375 z m 0.6875,5.75 0.40625,3.25 -1.5,3.125 -0.0312,38.5 1.78125,2.875 -0.0937,2.78125 L 104,90.1875 103.40625,58.8125 c -5.097171,-7.233607 -12.104026,-6.203736 -20.125,-5.6875 -9.565973,1.723165 -18.754026,7.726728 -21.4375,21.0625 l -0.4375,31.375 -16.34375,6.125 0.21875,-3.28125 L 45.21875,105.5 45.40625,70.59375 45.5,67.75 l 0.40625,-3.25 30.25,-13.125 c 0.684624,0.947621 1.633594,1.531251 2.78125,1.53125 2.190768,2e-6 4.3809,-2.100942 5.25,-4.90625 L 115.25,34.625 Z m -34.4375,6.34375 c 0.245524,0 0.490917,0.05948 0.71875,0.125 l -0.96875,2.9375 C 80.381873,43.926491 80.203178,43.853198 80.03125,43.875 l 0.03125,-2.78125 c 0.256154,-0.07295 0.503038,-0.125 0.75,-0.125 z m -1.15625,0.25 -0.1875,2.9375 C 79.269587,44.289319 79.006221,44.473337 78.75,44.6875 l -1.3125,-1.75 c 0.66391,-0.773413 1.440977,-1.392847 2.21875,-1.71875 z m 2.40625,0.0625 c 0.679289,0.367427 1.225306,1.053687 1.59375,1.875 l -2.40625,1.5 C 81.120567,44.50044 81.019386,44.354911 80.90625,44.25 l 1.15625,-2.96875 z m -54.9375,1.40625 17.9375,8.5 -0.03125,6.40625 L 27,49.0625 l 0.125,-6.375 z m 50,0.625 1.3125,1.71875 c -0.177869,0.276818 -0.311984,0.527313 -0.40625,0.75 L 76.125,45 c 0.258284,-0.597487 0.604577,-1.16848 1,-1.6875 z m 6.71875,0.3125 c 0.222626,0.661725 0.319107,1.389574 0.28125,2.15625 l -2.5,0 c -0.03788,-0.26734 -0.08659,-0.54157 -0.15625,-0.875 l 2.375,-1.28125 z m -4.125,0.8125 C 80.119848,44.390545 80.460552,44.691744 81,45 c 0.408951,1.226401 -0.01435,2.248191 -0.5625,3.34375 -0.782056,0.744393 -1.013517,0.33811 -1.8125,-0.25 -0.530942,-1.151085 -0.190981,-2.046012 0.25,-3.125 0.341407,-0.34588 0.603091,-0.503077 0.84375,-0.53125 z M 76.03125,45.34375 77.875,46.25 c -0.06351,0.321203 -0.04379,0.643821 0.03125,1 L 75.625,48.03125 c -0.04772,-0.464656 -0.03556,-0.935546 0.03125,-1.40625 0.0614,-0.432581 0.214429,-0.854027 0.375,-1.28125 z m -0.65625,0.4375 c -0.06695,0.275863 -0.146815,0.557094 -0.1875,0.84375 -0.234161,1.64983 0.0435,3.131526 0.65625,4.25 L 45.875,63.71875 l -0.0625,-5.1875 29.5625,-12.75 z m 8.71875,0.375 c -0.0069,0.06242 0.0089,0.124894 0,0.1875 -0.113233,0.797801 -0.414304,1.622848 -0.8125,2.40625 l -1.75,-1.375 c 0.128526,-0.371414 0.175649,-0.737217 0.15625,-1.125 l 2.40625,-0.09375 z M 77.9375,47.5 c 0.06262,0.244942 0.152424,0.497069 0.25,0.8125 0.0892,0.123567 0.170701,0.209834 0.25,0.3125 l -2.15625,1.53125 C 76.010048,49.628573 75.793242,49.058905 75.6875,48.4375 l 2.25,-0.9375 z m 3.4375,0.28125 1.65625,1.34375 0.0625,-0.03125 C 82.7256,49.74806 82.299184,50.368672 81.8125,50.875 l -1.09375,-2.15625 c 0.06901,-0.06012 0.111951,-0.08909 0.1875,-0.15625 0.196395,-0.290214 0.351726,-0.539737 0.46875,-0.78125 z m -2.65625,1.1875 c 0.154522,0.170995 0.304029,0.29862 0.4375,0.375 l -0.46875,2.9375 C 77.773549,52.113425 76.970083,51.39911 76.40625,50.4375 l 2.3125,-1.46875 z m 1.6875,0 1.1875,2.125 c -0.681772,0.650354 -1.429141,1.086273 -2.15625,1.1875 l 0.09375,-2.84375 c 0.241323,-0.01236 0.537465,-0.197414 0.875,-0.46875 z m 28.8125,0.71875 c -2.30417,0.535903 -4.0207,3.248367 -4,5.96875 l 0.1875,22.90625 c 0.0207,2.720377 1.75833,4.62965 4.0625,4.09375 2.30417,-0.5359 4.0832,-3.248369 4.0625,-5.96875 l -0.1875,-22.90625 c -0.0391,-2.883377 -1.65942,-3.926826 -4.125,-4.09375 z m -81.6875,0.15625 17.5,8.3125 L 45,63.625 27.59375,55.0625 27.53125,49.84375 Z m 82,0.15625 c 2.08861,-0.02034 3.85051,1.946909 3.5,4.1875 l 0.125,22.65625 c 0.0173,2.278842 -2.03455,5.271811 -3.6875,5.65625 -1.65295,0.38444 -3.57641,-1.627406 -3.59375,-3.90625 L 105.5,55.8125 c -0.0173,-2.278846 1.97205,-5.396812 3.625,-5.78125 0.14176,-0.01953 0.26701,-0.02989 0.40625,-0.03125 z M 88.75,53.0625 c 5.587964,-0.127825 11.67455,0.973724 14.28125,6.03125 l 0.6875,31.21875 -1.21875,0.5 -0.65625,-30.90625 C 95.313763,52.598453 88.290364,53.79157 79.625,56.09375 71.519077,59.649804 63.967799,66.513459 63.46875,73.46875 l 0.34375,31.1875 -2.15625,0.8125 0.125,-0.15625 L 62.125,74.125 C 64.727347,61.192399 74.203751,55.168948 83.46875,53.5 85.069821,53.285617 86.887345,53.105108 88.75,53.0625 Z m 21.34375,0.40625 c -1.65988,-2e-6 -2.51208,1.192698 -3.0625,3.28125 -0.55042,2.088553 0.15261,3.031253 1.8125,3.03125 1.65988,-10e-7 2.54333,-0.942697 3.09375,-3.03125 0.55042,-2.088553 -0.18386,-3.281253 -1.84375,-3.28125 z m -0.5,0.21875 c 0.15677,9.8e-4 0.30269,0.02405 0.46875,0.09375 1.56896,-10e-7 2.24119,1.433326 1.75,3.0625 -0.48526,1.609497 -1.912,2.887591 -3.15625,2.8125 -1.16703,-0.07043 -1.56586,-1.389797 -1.28125,-2.90625 0.28428,-1.514687 1.12137,-3.069362 2.21875,-3.0625 z M 89.4375,54.875 c 0.221977,10.23326 0.299441,19.796135 0.5,30.03125 l -1.65625,-0.8125 -0.21875,-29.1875 c 0.458518,-0.02251 0.920667,-0.03952 1.375,-0.03125 z m 0.28125,0 c 3.587401,0.117748 7.01352,1.275145 9.9375,3.84375 0.117959,10.375034 0.283048,20.749683 0.375,31.125 L 90.21875,85.0625 C 90.026711,74.884863 89.939447,65.051381 89.71875,54.875 Z M 26.90625,55.5625 45,64.34375 l -0.03125,3.21875 0.15625,3.03125 -0.1875,35 L 44.71875,108.5 44.5625,111.34375 26.96875,99.375 26.6875,97.09375 28.21875,95.625 28.1875,61.125 26.84375,58.75 l 0.0625,-3.1875 z m 73,3.375 c 0.40446,0.370534 0.80394,0.758753 1.1875,1.1875 l 0.59375,30.53125 -1.28125,-0.625 c -0.0364,-10.328018 0.51023,-20.809847 -0.5,-31.09375 z m -70.34375,3.25 c -1.122145,3.019629 -0.913302,7.167241 0.46875,10.15625 0.07879,0.119565 0.167714,0.227258 0.25,0.34375 0.08674,0.213801 0.21598,0.389732 0.375,0.53125 1.546462,1.983421 3.596007,3.522318 5.6875,4.90625 1.945445,1.257019 4.531909,2.290816 6.84375,2.15625 0.03088,-0.08114 0.0649,-0.167248 0.09375,-0.25 0.06383,-0.08278 0.09889,-0.178878 0.09375,-0.3125 0.927025,-2.973089 0.61374,-6.837162 -0.71875,-9.65625 -1.58692,-2.420466 -3.924036,-4.176683 -6.3125,-5.75 -1.94786,-1.263684 -4.461694,-2.260016 -6.78125,-2.125 z m 80.75,0.03125 c -0.18385,-0.0075 -0.41397,0.0155 -0.6875,0.0625 -1.0941,0.18798 -1.375,0.526964 -1.375,1.625 l 0.0312,5.9375 c 0,1.098034 0.40589,1.375485 1.5,1.1875 1.0941,-0.187982 1.125,-0.620712 1.125,-1.71875 l 0.125,-5.96875 c 0,-0.823526 -0.1672,-1.102457 -0.71875,-1.125 z m -0.375,0.09375 c 0.63083,-0.06373 1.12608,0.468648 0.96875,1.09375 l -0.1875,5.96875 c 0.16354,0.807171 -0.30734,1.0956 -1,1.5 -0.64622,0.377285 -1.28841,-0.259035 -1.25,-1.0625 l -0.0937,-5.96875 c -0.22017,-0.571291 0.23111,-1.446485 1.28125,-1.46875 0.0946,-0.03423 0.19113,-0.0534 0.28125,-0.0625 z m -79.46875,0.125 5.78125,7.84375 5.1875,-1.125 c 0.445312,0.494332 0.840858,0.998053 1.1875,1.46875 0.04505,0.108273 0.08228,0.23152 0.125,0.34375 l -5.84375,1.125 6.125,7.28125 c -0.09397,0.198112 -0.195789,0.387665 -0.3125,0.5625 -0.410358,0.03743 -0.850293,0.007 -1.28125,-0.0625 l -6.46875,-7.46875 -4.0625,0.6875 c -0.216492,-0.256599 -0.4345,-0.518863 -0.625,-0.78125 -0.101845,-0.236569 -0.216033,-0.485763 -0.3125,-0.75 0.0093,-0.06984 0.02318,-0.123698 0.0625,-0.1875 L 33.75,70.59375 29.5625,63.4375 c 0.12644,-0.330674 0.256064,-0.667218 0.4375,-0.96875 0.155485,-0.01613 0.312442,-0.02601 0.46875,-0.03125 z m 0.1875,0 c 0.04206,0.0011 0.08249,-0.0031 0.125,0 1.862767,0.136826 3.863232,1.322669 5.375,2.21875 1.692086,1.044926 3.659902,2.757382 5.1875,4.4375 l -5.0625,1.03125 -5.625,-7.6875 z m -1.1875,1.1875 4.09375,6.9375 -3.6875,0.6875 c -0.760649,-2.232615 -1.236817,-5.231955 -0.40625,-7.625 z m 64.96875,0.71875 c -0.432827,-0.01486 -0.912053,0.02474 -1.4375,0.125 -2.22438,3.216386 0.405367,6.085628 3.75,5.5625 1.482472,-2.840835 0.717287,-5.583453 -2.3125,-5.6875 z M 94.875,64.5 c 2.133859,0.09193 3.391202,3.288803 1.59375,5.03125 C 93.936046,71.192895 90.614012,66.569604 93.28125,65 93.841085,64.634653 94.382571,64.478785 94.875,64.5 Z m -1.125,1.34375 c -0.852694,1.770466 0.221608,3.350457 2.0625,3.0625 0.922438,-1.775278 -0.2373,-2.933907 -2.0625,-3.0625 z m 0.15625,0.28125 c 1.429861,0.09685 2.521274,1.140942 1.75,2.5 -1.84014,0.245562 -2.240208,-1.119959 -1.75,-2.5 z m -37.9375,2.96875 c -0.662232,1.54e-4 -1.397613,0.120573 -2.15625,0.40625 -3.034548,1.142711 -5.583407,4.295921 -5.625,7.125 l -0.34375,22.84375 c -0.04159,2.82908 2.465453,4.0802 5.5,2.9375 3.034546,-1.14271 5.614659,-4.29592 5.65625,-7.125 L 59.3125,72.4375 c 0.03119,-2.121809 -1.357054,-3.344213 -3.34375,-3.34375 z m -0.65625,0.5625 c 1.997664,-0.0211 3.619515,1.466217 3.59375,3.21875 l -0.4375,22.78125 c -0.03171,2.156968 -2.521412,5.36332 -5.125,6.34375 -2.603588,0.98042 -5.094211,-0.28053 -5.0625,-2.4375 L 48.625,76.53125 c 0.03171,-2.156964 2.646413,-5.613328 5.25,-6.59375 0.488173,-0.183829 0.976501,-0.27638 1.4375,-0.28125 z m -12.5,1.5 c 0.904883,2.495935 1.231383,5.813525 0.3125,8 l -5.8125,-6.9375 5.5,-1.0625 z m -8,1.34375 6.28125,7.3125 C 39.441854,79.456924 37.742434,78.492232 36.4375,77.71875 34.562189,76.556485 32.535129,74.985505 31.03125,73.25 L 34.8125,72.5 Z m 20.125,0.28125 c -1.659885,10e-7 -3.449581,1.692698 -4,3.78125 -0.55042,2.088554 0.340113,3.812503 2,3.8125 1.659885,10e-7 3.480831,-1.723947 4.03125,-3.8125 0.550419,-2.088552 -0.371363,-3.781253 -2.03125,-3.78125 z m 55.15625,0.25 c -1.65988,0 -2.69958,0.848948 -3.25,2.9375 -0.55042,2.088556 0.30886,3.000003 1.96875,3 1.65989,2e-6 2.44958,-0.880197 3,-2.96875 0.55042,-2.088553 -0.0589,-2.968753 -1.71875,-2.96875 z M 54.75,73.09375 c 1.696881,-0.15078 2.254095,1.777257 2,3.46875 -0.240617,1.601766 -2.459775,3.716781 -3.6875,3.6875 -1.659451,-0.03957 -2.403612,-1.974457 -1.96875,-3.4375 0.434147,-1.460643 2.071121,-3.760347 3.65625,-3.71875 z M 109.5625,73.25 c 0.16872,-0.0066 0.32317,0.02414 0.5,0.0625 1.84903,-0.08498 1.55636,1.028081 1.4375,2.65625 -0.12769,1.749032 -1.29928,2.367724 -2.84375,2.6875 -1.34399,0.278268 -1.53653,-1.110101 -1.375,-2.6875 0.15884,-1.551158 1.10023,-2.672258 2.28125,-2.71875 z m -15.125,2.6875 c -0.432827,-0.01486 -0.912053,0.02474 -1.4375,0.125 -2.22438,3.216388 0.405367,6.085628 3.75,5.5625 1.482472,-2.840834 0.717287,-5.583453 -2.3125,-5.6875 z m 0.4375,0.15625 c 2.133859,0.09193 3.391202,3.288803 1.59375,5.03125 -2.532704,1.661646 -5.854738,-2.961646 -3.1875,-4.53125 0.559835,-0.365346 1.101321,-0.521215 1.59375,-0.5 z M 93.75,77.4375 c -0.852694,1.770468 0.221608,3.350457 2.0625,3.0625 0.922438,-1.775276 -0.2373,-2.933907 -2.0625,-3.0625 z m 0.15625,0.28125 c 1.429861,0.09685 2.521274,1.140942 1.75,2.5 -1.84014,0.245564 -2.240208,-1.119959 -1.75,-2.5 z m -59.375,1.71875 c -0.775377,-0.01905 -1.156249,0.539151 -1.15625,1.75 0,1.937365 0.717035,3.496254 2.6875,4.5625 1.970463,1.066244 3.249999,0.56236 3.25,-1.375 -10e-7,-1.937357 -0.998285,-3.246255 -2.96875,-4.3125 -0.738924,-0.399842 -1.347274,-0.613572 -1.8125,-0.625 z m 0.25,0.5625 c 0.413603,-0.04579 0.926927,0.08181 1.46875,0.375 1.444859,0.781836 2.59375,2.525866 2.59375,3.90625 -2e-6,1.380383 -1.148889,1.875584 -2.59375,1.09375 -1.444863,-0.781833 -2.59375,-2.525866 -2.59375,-3.90625 0,-0.862741 0.435662,-1.392426 1.125,-1.46875 z m 19.4375,1.375 c -1.094104,0.187982 -2,1.214464 -2,2.3125 l 0,5.96875 c 10e-7,1.098035 0.905893,1.81298 2,1.625 -1.196672,0.164599 -1.937192,-1.036875 -1.78125,-1.59375 l 0,-5.96875 c -0.169639,-0.675963 0.697178,-2.348776 1.78125,-2.03125 1.201368,-0.486703 2.049861,0.715489 1.75,1.4375 l 0.125,5.96875 c 0.148903,0.534598 -1.208113,2.095771 -1.875,2.1875 1.094104,-0.187979 1.999999,-1.214462 2,-2.3125 l 0,-5.96875 c 2e-6,-1.09804 -0.905896,-1.812981 -2,-1.625 z m -18.9375,0.1875 c -0.852693,1.770468 0.221608,3.350457 2.0625,3.0625 0.922439,-1.775276 -0.2373,-2.933907 -2.0625,-3.0625 z m 0.15625,0.28125 c 1.429862,0.09685 2.521274,1.140942 1.75,2.5 -1.840139,0.245564 -2.240208,-1.119959 -1.75,-2.5 z m 52.84375,2.71875 13.40625,7.03125 0.125,4.90625 -14.40625,-8.03125 0.875,-3.75 0,-0.15625 z M 31,84.90625 C 30.232923,84.89815 29.561114,85.192041 29.15625,86 c 0.0032,0.05205 -0.0027,0.104137 0,0.15625 L 29.125,86.1875 29.15625,86.25 c 0.134005,3.005911 -0.622039,6.10447 0.6875,8.875 0.07071,0.107302 0.145102,0.207677 0.21875,0.3125 0.10429,0.278548 0.244707,0.528704 0.46875,0.6875 l 0.03125,0 c 1.540842,1.92366 3.577294,3.42629 5.625,4.78125 1.943455,1.26983 4.377546,2.35305 6.6875,2.25 l 0.03125,-0.5625 c 0.05056,-0.13111 0.03446,-0.2832 0,-0.46875 l 0.28125,-7.34375 c -0.787613,-3.468913 -4.19257,-5.829596 -7,-7.6875 C 34.914412,86.380071 32.68757,84.924174 31,84.90625 Z m 0.15625,0.6875 c 1.678057,0.01467 3.760181,1.242606 5.03125,2 1.791191,0.963507 3.48598,2.600293 4.875,4.3125 L 36.09375,92.9375 30.75,85.625 c 0.133674,-0.01533 0.266412,-0.03247 0.40625,-0.03125 z m 84.75,0.03125 1.0625,5.125 -14.34375,5.375 -0.0937,-4.59375 13.375,-5.90625 z m -85.34375,0.03125 5.40625,7.53125 5.3125,-1.03125 c 0.433853,0.54965 0.830509,1.119226 1.1875,1.65625 L 36.90625,95 l 5.625,6.8125 c -0.05618,0.35343 -0.101159,0.70113 -0.1875,1 -0.238157,0.0247 -0.478794,0.0189 -0.71875,0 l -6.9375,-7.59375 -3.9375,0.6875 c -0.11004,-0.123559 -0.209002,-0.250136 -0.3125,-0.375 L 29.78125,94.21875 33.65625,93.5 29.625,86.6875 c 0.01365,-0.217662 0.02322,-0.438588 0.03125,-0.65625 0.269355,-0.206675 0.575569,-0.314308 0.90625,-0.375 z m -0.96875,1.3125 3.78125,6.40625 -3.6875,0.6875 c -0.644581,-2.366813 -0.261829,-4.726937 -0.09375,-7.09375 z m 25.28125,5 c -1.659885,-3e-6 -3.449581,1.692698 -4,3.78125 -0.550419,2.08855 0.340113,3.81251 2,3.8125 1.659885,0 3.449581,-1.723947 4,-3.8125 0.55042,-2.088556 -0.340113,-3.781253 -2,-3.78125 z m -0.59375,0.25 c 0.163257,-0.02773 0.322605,-0.02398 0.46875,0.03125 1.725885,-3e-6 2.547072,2.067945 2,3.65625 -0.500708,1.453698 -2.369559,3.65337 -3.90625,3.59375 -1.382049,-0.05362 -2.317434,-2.059329 -1.6875,-3.6875 0.51824,-1.339483 1.982202,-3.399658 3.125,-3.59375 z m -11.71875,1.75 c 0.06914,0.105773 0.153065,0.208318 0.21875,0.3125 -0.05393,2.065473 0.08689,5.06428 -0.21875,7.28125 l -5.4375,-6.53125 5.4375,-1.0625 z M 34.625,95.3125 41,102.71875 c -1.639303,-0.34828 -3.268889,-1.47744 -4.625,-2.28125 -1.840451,-1.13654 -3.952243,-2.682483 -5.5,-4.375 l 3.75,-0.75 z M 26.90625,99.625 44.5,112.03125 l -0.53125,9.375 -18.5625,-14.875 1.5,-6.90625 z m 39.71875,12.71875 -22.28125,9.25 L 45,112.375 l 0.0625,0.0312 18.75,-7.25 2.8125,7.1875 z"
             style="fill:#000000;fill-opacity:1;fill-rule:evenodd;stroke:none;stroke-width:0.99999994px;stroke-linecap:butt;stroke-linejoin:miter;stroke-opacity:1" />
        </g>
      </g>
    </g>
  </g>
</svg>
